# xmcd
#
# Track frame offsets: 
#        150
#        26762
#        51512
#        72930
#        94457
#        110465
#        126832
#        155042
#        175777
#        189482
#        215937
#
# Disc length: 3137 seconds
#
# Revision: 0
# Processed by: cddbd v1.5.1PL2 Copyright (c) Steve Scherf et al.
# Submitted via: ExactAudioCopy v0.95b3
#
DISCID=aa0c3f0b
DTITLE=Toscho - Back By Popular Demand 
DYEAR=2001
DGENRE=R&B
TTITLE0=A place to rest
TTITLE1=Chanel No. 5
TTITLE2=Back by popular demand
TTITLE3=Gimme your number
TTITLE4=Bo Diddely's groove
TTITLE5=Kidney stew
TTITLE6=Forgotten mines
TTITLE7=Love her with a feelin'
TTITLE8=One good reason
TTITLE9=Tears on a postcard
TTITLE10=Tappin' my feet
EXTD=
EXTT0=
EXTT1=
EXTT2=
EXTT3=
EXTT4=
EXTT5=
EXTT6=
EXTT7=
EXTT8=
EXTT9=
EXTT10=
PLAYORDER=
